<svg width="641" height="512" viewBox="0 0 641 512" fill="none" xmlns="http://www.w3.org/2000/svg">
<path d="M62.3341 2.33319C39.5341 7.39986 19.9341 22.5999 9.53406 43.1332C5.80073 50.5999 0.73406 66.5999 1.80073 67.3999C2.06739 67.6665 73.9341 114.2 161.401 170.733L320.334 273.533L479.401 170.733C566.734 114.2 638.601 67.7999 638.867 67.5332C639.934 66.5999 634.867 50.5999 631.134 43.1332C622.201 25.6665 606.334 11.6665 587.001 4.59986L577.001 0.999856L323.667 0.733189C115.801 0.599856 68.8674 0.866522 62.3341 2.33319Z" fill="white"/>
<path d="M0.332161 279.134C0.332161 456.867 0.198828 451.134 8.4655 468.067C17.5322 486.467 36.0655 502.6 55.3988 508.6L64.9988 511.667H320.332H575.666L585.666 508.334C605.399 501.934 623.532 486.067 632.466 467.267C640.599 450.334 640.332 455.934 640.066 279.134L639.666 117.8L483.666 218.734L327.666 319.667H320.332H312.999L159.666 220.467C75.3988 165.934 4.99883 120.334 3.39883 119.267L0.332161 117.4V279.134Z" fill="white"/>
</svg>
