<svg width="531" height="530" viewBox="0 0 531 530" fill="none" xmlns="http://www.w3.org/2000/svg">
<g clip-path="url(#clip0_2327_471)">
<path d="M452.084 451.577H373.613V328.688C373.613 299.383 373.09 261.661 332.8 261.661C291.93 261.661 285.677 293.589 285.677 326.555V451.568H207.206V198.86H282.538V233.395H283.592C291.131 220.505 302.025 209.901 315.114 202.712C328.203 195.524 342.996 192.02 357.919 192.574C437.452 192.574 452.117 244.888 452.117 312.945L452.084 451.577ZM118.665 164.316C109.658 164.318 100.854 161.649 93.364 156.646C85.8745 151.644 80.0366 144.533 76.5885 136.213C73.1403 127.892 72.2369 118.737 73.9924 109.903C75.7479 101.069 80.0835 92.9538 86.4509 86.5841C92.8183 80.2144 100.932 75.8759 109.765 74.1172C118.598 72.3586 127.754 73.2587 136.076 76.7039C144.397 80.149 151.51 85.9844 156.515 93.4721C161.52 100.96 164.193 109.764 164.194 118.771C164.195 124.751 163.018 130.672 160.731 136.198C158.443 141.723 155.09 146.744 150.862 150.973C146.634 155.202 141.615 158.557 136.091 160.847C130.566 163.136 124.645 164.315 118.665 164.316ZM157.9 451.577H79.3476V198.86H157.9V451.577ZM491.205 0.369076H39.916C29.6731 0.253484 19.8032 4.20919 12.4753 11.367C5.14738 18.5247 0.960947 28.299 0.835938 38.5418V491.703C0.956669 501.951 5.14041 511.731 12.4681 518.896C19.7957 526.061 29.668 530.026 39.916 529.917H491.205C501.473 530.045 511.373 526.092 518.73 518.927C526.086 511.762 530.298 501.971 530.44 491.703V38.5091C530.294 28.246 526.079 18.4606 518.722 11.303C511.366 4.14544 501.468 0.201021 491.205 0.33638" fill="white"/>
</g>
<defs>
<clipPath id="clip0_2327_471">
<rect width="531" height="530" fill="white"/>
</clipPath>
</defs>
</svg>
